<?xml version="1.0" standalone="no"?>
<!DOCTYPE svg PUBLIC "-//W3C//DTD SVG 20010904//EN"
 "http://www.w3.org/TR/2001/REC-SVG-20010904/DTD/svg10.dtd">
<svg version="1.0" xmlns="http://www.w3.org/2000/svg"
 width="1012.000000pt" height="1012.000000pt" viewBox="0 0 1012.000000 1012.000000"
 preserveAspectRatio="xMidYMid meet">
<metadata>
Created by potrace 1.11, written by Peter Selinger 2001-2013
</metadata>
<g transform="translate(0.000000,1012.000000) scale(0.100000,-0.100000)"
fill="#000000" stroke="none">
<path d="M8795 7570 c-110 -4 -137 -9 -178 -29 -59 -29 -100 -70 -135 -136
l-26 -50 1 -280 c2 -549 3 -569 33 -633 37 -80 110 -139 195 -161 11 -2 219
-5 462 -5 346 0 451 3 485 14 123 39 206 152 204 278 -1 28 2 52 6 52 4 0 4
10 -1 23 -5 12 -5 31 -1 42 4 11 5 24 3 29 -3 4 -6 151 -7 325 l-2 316 -27 53
c-33 66 -76 107 -147 140 l-55 26 -340 1 c-187 0 -398 -2 -470 -5z"/>
<path d="M4696 7563 c-4 -4 -73 -8 -154 -8 -151 -1 -197 -7 -244 -31 -49 -25
-99 -76 -126 -128 l-27 -51 2 -915 c1 -503 2 -1259 4 -1680 1 -421 -1 -772 -3
-780 -22 -75 -90 -160 -154 -193 -60 -30 -10 -29 -1657 -41 -399 -3 -507 3
-507 26 0 5 -4 6 -10 3 -5 -3 -10 -1 -10 4 0 6 -6 11 -13 11 -33 0 -114 113
-131 184 -4 15 -9 508 -12 1095 -10 2006 -12 2235 -23 2269 -24 78 -88 148
-166 184 -50 22 -52 22 -502 21 -330 -1 -462 -4 -490 -13 -49 -17 -133 -71
-133 -87 0 -7 -4 -13 -8 -13 -10 0 -46 -70 -59 -115 -5 -17 -8 -251 -7 -525 2
-272 5 -1028 9 -1680 3 -652 6 -1191 5 -1197 0 -7 0 -19 -1 -25 -1 -14 0 -105
2 -153 1 -16 1 -36 0 -42 -2 -25 -2 -39 -2 -108 1 -38 1 -77 1 -85 0 -8 1
-184 3 -390 l3 -375 31 -67 c48 -102 135 -173 240 -196 21 -5 214 -7 428 -6
469 3 2686 14 3585 19 355 2 663 6 685 10 122 21 244 134 273 254 6 23 7 742
2 1971 -2 537 -3 506 15 524 25 24 74 3 130 -57 67 -72 236 -254 272 -293 15
-17 71 -78 123 -134 52 -57 120 -131 150 -164 30 -33 66 -71 80 -86 14 -14 66
-71 115 -125 50 -54 101 -111 115 -125 14 -15 66 -71 115 -125 50 -53 108
-117 130 -140 22 -24 78 -85 125 -136 47 -51 101 -109 120 -130 31 -33 151
-163 219 -238 13 -14 67 -73 120 -130 53 -57 105 -113 116 -125 70 -78 206
-225 235 -256 19 -21 73 -79 120 -130 47 -51 101 -109 120 -130 19 -20 55 -59
80 -86 26 -29 69 -62 101 -78 114 -55 120 -55 799 -51 548 3 632 6 680 20 97
30 165 89 218 189 l27 51 -3 1280 c-4 1700 0 1548 -38 1621 -35 67 -101 124
-170 146 -35 11 -133 13 -486 12 -244 0 -454 -4 -468 -9 -92 -27 -158 -86
-196 -171 l-24 -55 1 -602 c0 -331 -2 -610 -6 -619 -9 -23 -37 -31 -66 -19
-25 9 -85 71 -324 337 -20 22 -139 153 -185 204 -14 15 -43 47 -64 71 -22 24
-60 67 -85 94 -25 28 -82 90 -126 139 -44 49 -89 98 -100 110 -11 12 -58 64
-105 116 -47 52 -94 104 -105 116 -11 12 -54 59 -95 104 -41 46 -82 91 -90 99
-9 9 -52 56 -95 105 -44 50 -87 97 -95 106 -8 9 -51 56 -95 104 -44 49 -91
101 -105 116 -43 47 -169 185 -187 207 -10 11 -52 57 -93 103 -41 45 -86 94
-99 109 -13 14 -47 51 -75 82 -28 30 -87 95 -131 144 -44 49 -91 101 -105 116
-14 16 -52 58 -85 95 -33 37 -73 81 -90 99 -16 17 -45 49 -64 71 -58 68 -204
227 -247 270 -63 63 -136 92 -254 99 -40 3 -76 8 -81 11 -5 3 -9 2 -9 -3 0
-10 -182 -9 -198 1 -7 4 -12 4 -12 -1 0 -9 -271 -9 -287 0 -6 4 -13 3 -17 0z"/>
</g>
</svg>
